<?xml version="1.0" encoding="UTF-8"?>
<!DOCTYPE svg PUBLIC "-//W3C//DTD SVG 1.1//EN" "http://www.w3.org/Graphics/SVG/1.1/DTD/svg11.dtd">
<!-- Creator: CorelDRAW (Версия для OEM) -->
<svg xmlns="http://www.w3.org/2000/svg" xml:space="preserve" width="20.6658mm" height="18.6237mm" version="1.1" style="shape-rendering:geometricPrecision; text-rendering:geometricPrecision; image-rendering:optimizeQuality; fill-rule:evenodd; clip-rule:evenodd"
viewBox="0 0 92.06 82.96"
 xmlns:xlink="http://www.w3.org/1999/xlink"
 xmlns:xodm="http://www.corel.com/coreldraw/odm/2003">
 <defs>
  <style type="text/css">
   <![CDATA[
    .str0 {stroke:#008DD2;stroke-width:2.36;stroke-miterlimit:22.9256}
    .str1 {stroke:#00A0E3;stroke-width:0.34;stroke-miterlimit:22.9256}
    .str2 {stroke:#008DD2;stroke-width:0.34;stroke-miterlimit:22.9256}
    .fil2 {fill:none}
    .fil7 {fill:none;fill-rule:nonzero}
    .fil6 {fill:#00A0E3}
    .fil0 {fill:#008DD2}
    .fil1 {fill:#008DD2;fill-rule:nonzero}
    .fil4 {fill:url(#id0)}
    .fil3 {fill:url(#id1)}
    .fil5 {fill:url(#id2)}
   ]]>
  </style>
  <linearGradient id="id0" gradientUnits="userSpaceOnUse" x1="34.18" y1="29.99" x2="94.78" y2="37.42">
   <stop offset="0" style="stop-opacity:1; stop-color:#008DD2"/>
   <stop offset="0.501961" style="stop-opacity:1; stop-color:#FEFEFE"/>
   <stop offset="1" style="stop-opacity:1; stop-color:#00A0E3"/>
  </linearGradient>
  <linearGradient id="id1" gradientUnits="userSpaceOnUse" x1="2.59" y1="43.69" x2="37.98" y2="64.34">
   <stop offset="0" style="stop-opacity:1; stop-color:#008DD2"/>
   <stop offset="0.65098" style="stop-opacity:1; stop-color:#FEFEFE"/>
   <stop offset="1" style="stop-opacity:1; stop-color:#008DD2"/>
  </linearGradient>
  <linearGradient id="id2" gradientUnits="userSpaceOnUse" x1="16.36" y1="37.11" x2="67.44" y2="57.62">
   <stop offset="0" style="stop-opacity:1; stop-color:#008DD2"/>
   <stop offset="0.0117647" style="stop-opacity:1; stop-color:#008DD2"/>
   <stop offset="0.6" style="stop-opacity:1; stop-color:#FEFEFE"/>
   <stop offset="1" style="stop-opacity:1; stop-color:#008DD2"/>
  </linearGradient>
 </defs>
 <g id="Слой_x0020_1">
  <metadata id="CorelCorpID_0Corel-Layer"/>
  <polygon class="fil0" points="89.35,8.91 91.82,5.52 89.37,0.54 "/>
  <g>
   <path class="fil1" d="M86.75 5.52l-0.01 -0.11 0.4 -0.02 2.41 3.38 -0.39 0.13 -2.41 -3.38zm0 0l-0.04 -0.06 0.03 -0.06 0.01 0.11zm2.42 -5.11l0.41 -0 0 0.1 -2.43 4.99 -0.41 -0.1 2.43 -4.99zm0 0l0.2 -0.42 0.2 0.42 -0.41 0zm2.86 4.98l-0.01 0.12 -0.4 -0.02 -2.46 -4.99 0.41 -0.1 2.46 4.99zm0 0l0.03 0.06 -0.04 0.06 0.01 -0.12zm-2.48 3.51l-0.38 -0 0 -0.13 2.47 -3.39 0.38 0.14 -2.47 3.39zm0 0l-0.19 0.27 -0.19 -0.27 0.38 0z"/>
  </g>
  <g id="_2326667315344">
   <line class="fil2 str0" x1="89.34" y1="7.13" x2="89.25" y2= "82.96" />
   <path class="fil3" d="M33.19 56.33l-12.89 -9.55c-16.61,1.57 -6.03,9.7 -20.3,12.6 17.35,1.84 16.04,-1.19 23.11,-1.37 7.06,-0.18 17.47,2.81 18.26,0.41 0.96,-2.92 -6.86,-0.37 -8.18,-2.1z"/>
   <path class="fil4" d="M53.27 54.95l-13 -21c0.17,-17.28 27.2,-23.33 35.88,-23.57 8.68,-0.23 9.22,-1.18 12.54,-2.41l0 51.46c-11.6,-10.33 -38.86,-8.59 -35.42,-4.47z"/>
   <path class="fil5" d="M20.29 46.77l13.17 9.78c-0.44,-0.28 -0.61,-0.71 -0.36,-1.43 0.74,-2.17 7.71,-0.52 13.23,2.16 5.52,2.68 18.59,3.5 17.85,0.14 -0.8,-3.67 -8.22,0.76 -10.91,-2.47l-13 -21.01c-10.95,0.05 -19.36,3.07 -19.98,12.82z"/>
   <path class="fil6" d="M53.06 54.64c-0.73,-1.55 3.71,-2.7 9.16,-2.89l2.61 4.97c-1.3,-2.86 -9,1.31 -11.57,-1.77 -0.09,-0.11 -0.16,-0.21 -0.21,-0.31z"/>
   <path class="fil6" d="M42.21 57.25c-1.01,-1.67 -10.44,1.16 -9.12,-2.13 0.43,-1.07 3.45,-0.91 5.93,-0.49l3.19 2.62z"/>
   <g>
    <line class="fil7 str1" x1="42.23" y1="57.26" x2="39.27" y2= "54.68" />
   </g>
   <g>
    <line class="fil7 str1" x1="64.95" y1="56.82" x2="62.08" y2= "51.63" />
   </g>
   <g>
    <line class="fil7 str2" x1="20.28" y1="46.77" x2="33.31" y2= "56.47" />
   </g>
   <g>
    <line class="fil7 str2" x1="40.27" y1="33.96" x2="53.26" y2= "54.95" />
   </g>
   <g>
    <path class="fil1" d="M23.58 58.37l0 0 -0.6 0.02 -0.55 0.04 -0.51 0.05 -0.48 0.06 -0.45 0.07 -0.43 0.08 -0.42 0.09 -0.41 0.1 -0.4 0.1 -0.41 0.11 -0.42 0.11 -0.43 0.12 -0.45 0.12 -0.47 0.12 -0.5 0.12 -0.53 0.11 -0.56 0.11 -0.6 0.1 -0.64 0.09 -0.68 0.08 -0.73 0.07 -0.79 0.05 -0.84 0.04 -0.91 0.02 -0.98 0 -1.05 -0.02 -1.13 -0.04 -1.21 -0.06 -1.29 -0.08 -1.39 -0.11 -1.49 -0.13 -1.59 -0.16 0.31 -1.43 1.56 0.16 1.45 0.13 1.35 0.1 1.25 0.08 1.16 0.06 1.08 0.04 0.99 0.02 0.92 -0 0.85 -0.02 0.78 -0.03 0.72 -0.05 0.66 -0.06 0.61 -0.07 0.57 -0.08 0.53 -0.09 0.49 -0.09 0.47 -0.1 0.45 -0.1 0.43 -0.11 0.42 -0.11 0.42 -0.11 0.42 -0.12 0.43 -0.11 0.44 -0.11 0.46 -0.11 0.48 -0.1 0.51 -0.09 0.53 -0.08 0.56 -0.07 0.6 -0.06 0.64 -0.04 0.68 -0.03 0 0 0.08 1.45zm19.24 -0.15l0 0 -0.17 0.35 -0.27 0.32 -0.36 0.26 -0.42 0.2 -0.45 0.15 -0.47 0.1 -0.49 0.07 -0.51 0.04 -0.53 0.02 -0.55 -0 -0.57 -0.02 -0.6 -0.04 -0.62 -0.05 -0.64 -0.06 -0.66 -0.07 -0.67 -0.08 -0.69 -0.08 -0.7 -0.09 -0.71 -0.09 -0.72 -0.09 -0.73 -0.09 -0.73 -0.09 -0.73 -0.09 -0.73 -0.08 -0.73 -0.08 -0.72 -0.07 -0.71 -0.06 -0.7 -0.05 -0.69 -0.04 -0.67 -0.02 -0.65 -0.01 -0.63 0.01 -0.08 -1.45 0.71 -0.01 0.72 0.01 0.73 0.03 0.74 0.04 0.75 0.05 0.75 0.06 0.76 0.07 0.76 0.08 0.75 0.09 0.75 0.09 0.74 0.09 0.73 0.09 0.72 0.09 0.71 0.09 0.69 0.09 0.67 0.08 0.65 0.07 0.63 0.07 0.6 0.06 0.57 0.04 0.53 0.03 0.5 0.02 0.45 0 0.4 -0.01 0.35 -0.03 0.29 -0.04 0.23 -0.05 0.16 -0.05 0.1 -0.05 0.05 -0.04 0.04 -0.04 0.03 -0.07 0 0 2.03 0.32zm-8.27 -3.3l0 0 -0.07 0.26 -0.02 0.19 0.02 0.13 0.03 0.08 0.04 0.05 0.05 0.04 0.08 0.04 0.14 0.05 0.2 0.05 0.25 0.04 0.3 0.03 0.34 0.02 0.37 0.01 0.4 -0 0.42 -0.01 0.43 -0.01 0.44 -0.01 0.45 -0.01 0.45 -0.01 0.45 -0 0.44 0.01 0.44 0.02 0.43 0.04 0.43 0.07 0.42 0.11 0.41 0.16 0.38 0.22 0.31 0.29 0.21 0.34 0.1 0.36 -0.01 0.38 -0.09 0.39 -2.03 -0.32 0.05 -0.2 0 -0.13 -0.02 -0.07 -0.02 -0.02 -0.01 -0.01 -0.04 -0.02 -0.09 -0.03 -0.16 -0.04 -0.22 -0.04 -0.28 -0.03 -0.32 -0.02 -0.36 -0.01 -0.39 0 -0.41 0.01 -0.43 0.01 -0.44 0.01 -0.45 0.01 -0.46 0.01 -0.46 0 -0.46 -0.01 -0.45 -0.02 -0.45 -0.04 -0.44 -0.07 -0.44 -0.1 -0.43 -0.15 -0.4 -0.21 -0.34 -0.27 -0.26 -0.32 -0.16 -0.36 -0.06 -0.38 0.03 -0.4 0.11 -0.42 0 0 2.03 0.33zm11.62 2.59l0 0 -0.51 -0.24 -0.51 -0.23 -0.52 -0.23 -0.52 -0.22 -0.52 -0.21 -0.53 -0.2 -0.53 -0.19 -0.52 -0.19 -0.52 -0.18 -0.51 -0.16 -0.51 -0.15 -0.5 -0.14 -0.49 -0.13 -0.48 -0.12 -0.46 -0.1 -0.45 -0.09 -0.43 -0.08 -0.41 -0.06 -0.39 -0.05 -0.37 -0.03 -0.34 -0.02 -0.31 -0 -0.27 0.01 -0.24 0.02 -0.2 0.03 -0.16 0.04 -0.12 0.04 -0.09 0.04 -0.07 0.04 -0.05 0.05 -0.05 0.07 -0.04 0.09 -2.03 -0.33 0.13 -0.3 0.2 -0.28 0.26 -0.25 0.31 -0.21 0.35 -0.17 0.38 -0.13 0.39 -0.1 0.41 -0.07 0.42 -0.04 0.43 -0.02 0.44 0 0.45 0.02 0.47 0.04 0.48 0.06 0.49 0.07 0.5 0.09 0.51 0.1 0.52 0.12 0.53 0.13 0.54 0.14 0.55 0.16 0.55 0.17 0.56 0.18 0.56 0.19 0.56 0.2 0.56 0.21 0.56 0.22 0.56 0.23 0.56 0.23 0.55 0.24 0.55 0.25 0.54 0.26 0 0 -1.19 1.19zm19.48 -0.56l0 0 0.04 0.43 -0.07 0.42 -0.19 0.39 -0.29 0.35 -0.37 0.31 -0.44 0.26 -0.49 0.21 -0.53 0.18 -0.56 0.14 -0.6 0.12 -0.63 0.09 -0.66 0.07 -0.69 0.05 -0.71 0.02 -0.73 0 -0.75 -0.01 -0.77 -0.03 -0.78 -0.05 -0.79 -0.07 -0.79 -0.09 -0.8 -0.1 -0.8 -0.12 -0.79 -0.13 -0.78 -0.15 -0.77 -0.16 -0.75 -0.18 -0.73 -0.19 -0.71 -0.21 -0.69 -0.22 -0.66 -0.24 -0.62 -0.25 -0.59 -0.27 1.19 -1.19 0.49 0.22 0.53 0.22 0.57 0.21 0.61 0.2 0.64 0.19 0.67 0.18 0.69 0.16 0.71 0.15 0.72 0.14 0.73 0.12 0.74 0.11 0.74 0.09 0.74 0.08 0.73 0.06 0.71 0.05 0.7 0.03 0.68 0.01 0.65 -0 0.62 -0.02 0.59 -0.04 0.55 -0.06 0.5 -0.07 0.45 -0.09 0.39 -0.1 0.33 -0.11 0.26 -0.12 0.2 -0.12 0.14 -0.11 0.09 -0.11 0.06 -0.12 0.02 -0.14 -0.02 -0.18 0 0 2.06 -0.22zm-11.04 -2.72l0 0 0.2 0.21 0.21 0.17 0.22 0.14 0.23 0.11 0.24 0.09 0.26 0.07 0.29 0.05 0.31 0.04 0.34 0.02 0.36 0 0.38 -0.01 0.39 -0.02 0.41 -0.03 0.42 -0.04 0.42 -0.04 0.43 -0.05 0.43 -0.05 0.43 -0.04 0.44 -0.04 0.44 -0.03 0.44 -0.01 0.44 0.01 0.44 0.03 0.44 0.06 0.44 0.1 0.43 0.15 0.4 0.2 0.35 0.25 0.3 0.29 0.23 0.33 0.17 0.36 0.12 0.4 -2.06 0.22 -0.07 -0.25 -0.09 -0.19 -0.1 -0.14 -0.1 -0.1 -0.1 -0.07 -0.12 -0.06 -0.14 -0.05 -0.18 -0.04 -0.22 -0.03 -0.26 -0.02 -0.3 -0 -0.33 0.01 -0.36 0.02 -0.38 0.03 -0.4 0.04 -0.42 0.04 -0.43 0.05 -0.45 0.05 -0.46 0.04 -0.47 0.03 -0.47 0.02 -0.48 0.01 -0.48 -0.01 -0.49 -0.03 -0.49 -0.06 -0.49 -0.09 -0.48 -0.13 -0.47 -0.17 -0.45 -0.22 -0.41 -0.26 -0.38 -0.31 -0.33 -0.35 0 0 1.8 -0.73zm33.7 5.29l-1.08 -0.89 -1.16 -0.83 -1.24 -0.76 -1.3 -0.7 -1.36 -0.64 -1.41 -0.58 -1.45 -0.53 -1.49 -0.47 -1.51 -0.42 -1.53 -0.37 -1.54 -0.31 -1.54 -0.27 -1.53 -0.22 -1.51 -0.17 -1.48 -0.13 -1.45 -0.08 -1.4 -0.04 -1.35 -0 -1.29 0.03 -1.22 0.07 -1.13 0.1 -1.04 0.13 -0.94 0.16 -0.82 0.19 -0.7 0.2 -0.56 0.21 -0.41 0.21 -0.25 0.19 -0.12 0.15 -0.04 0.12 0.02 0.14 0.13 0.21 -1.8 0.73 -0.34 -0.55 -0.1 -0.58 0.16 -0.57 0.39 -0.5 0.55 -0.42 0.67 -0.35 0.78 -0.3 0.88 -0.26 0.98 -0.22 1.07 -0.18 1.16 -0.15 1.24 -0.11 1.31 -0.08 1.38 -0.04 1.44 0 1.49 0.04 1.53 0.09 1.57 0.13 1.59 0.18 1.61 0.23 1.62 0.28 1.63 0.33 1.62 0.39 1.61 0.44 1.59 0.5 1.55 0.56 1.51 0.63 1.47 0.69 1.41 0.76 1.34 0.83 1.27 0.9 1.18 0.97 -1.64 0.89z"/>
   </g>
   <g>
    <path class="fil1" d="M88.6 7.6l0.27 -0.32 0.77 0.32 0 51.46 -1.04 0 -0 -51.46zm0.27 -0.32l0.77 -0.29 0 0.61 -0.77 -0.32zm-12.31 2.37l0 0 0.78 -0.02 0.74 -0.03 0.69 -0.03 0.65 -0.04 0.61 -0.04 0.57 -0.04 0.54 -0.05 0.5 -0.05 0.47 -0.05 0.44 -0.06 0.41 -0.06 0.39 -0.06 0.36 -0.07 0.34 -0.07 0.32 -0.07 0.3 -0.07 0.29 -0.08 0.27 -0.08 0.26 -0.08 0.25 -0.08 0.25 -0.09 0.24 -0.09 0.24 -0.09 0.24 -0.1 0.24 -0.1 0.25 -0.1 0.25 -0.11 0.26 -0.11 0.27 -0.11 0.28 -0.11 0.29 -0.12 0.31 -0.12 0.49 0.64 -0.3 0.11 -0.28 0.11 -0.27 0.11 -0.26 0.11 -0.26 0.11 -0.25 0.11 -0.25 0.1 -0.25 0.1 -0.25 0.1 -0.25 0.1 -0.26 0.1 -0.27 0.09 -0.28 0.09 -0.29 0.09 -0.3 0.09 -0.31 0.08 -0.33 0.08 -0.35 0.08 -0.37 0.07 -0.39 0.07 -0.41 0.07 -0.44 0.06 -0.46 0.06 -0.49 0.06 -0.52 0.05 -0.55 0.05 -0.59 0.04 -0.63 0.04 -0.67 0.04 -0.71 0.03 -0.75 0.03 -0.8 0.02 0 0 -0.04 -0.72zm-35.86 23.55l-0.52 0.36 0.09 -1.61 0.25 -1.55 0.39 -1.48 0.53 -1.42 0.65 -1.36 0.77 -1.3 0.88 -1.23 0.98 -1.17 1.07 -1.11 1.16 -1.06 1.23 -1 1.3 -0.94 1.36 -0.89 1.4 -0.83 1.45 -0.78 1.48 -0.73 1.5 -0.68 1.52 -0.63 1.53 -0.58 1.53 -0.53 1.52 -0.48 1.5 -0.44 1.48 -0.39 1.44 -0.35 1.4 -0.31 1.35 -0.27 1.29 -0.23 1.23 -0.19 1.16 -0.15 1.07 -0.11 0.99 -0.08 0.89 -0.04 0.04 0.72 -0.84 0.04 -0.94 0.07 -1.04 0.11 -1.12 0.14 -1.2 0.18 -1.26 0.22 -1.32 0.26 -1.37 0.3 -1.41 0.34 -1.45 0.39 -1.47 0.43 -1.49 0.47 -1.49 0.52 -1.49 0.57 -1.49 0.61 -1.47 0.66 -1.44 0.71 -1.41 0.76 -1.37 0.81 -1.32 0.86 -1.26 0.91 -1.19 0.97 -1.12 1.02 -1.04 1.08 -0.95 1.13 -0.85 1.19 -0.74 1.25 -0.63 1.31 -0.51 1.37 -0.38 1.43 -0.24 1.5 -0.09 1.56 -0.52 0.36 -0.01 -0.72zm0.52 0.36l-0 0.36 -0.51 0 0.52 -0.36zm-20.58 12.49l-0.45 0.34 0.08 -0.91 0.13 -0.87 0.17 -0.83 0.22 -0.8 0.26 -0.76 0.3 -0.73 0.34 -0.69 0.38 -0.66 0.42 -0.62 0.46 -0.59 0.5 -0.56 0.54 -0.53 0.57 -0.49 0.61 -0.46 0.64 -0.43 0.67 -0.4 0.71 -0.37 0.73 -0.34 0.76 -0.31 0.79 -0.29 0.82 -0.26 0.84 -0.23 0.86 -0.21 0.89 -0.18 0.91 -0.16 0.93 -0.14 0.95 -0.11 0.97 -0.09 0.99 -0.07 1 -0.05 1.02 -0.03 1.03 -0.01 0.01 0.72 -1.01 0.01 -0.99 0.03 -0.97 0.05 -0.95 0.07 -0.93 0.09 -0.91 0.11 -0.89 0.13 -0.87 0.15 -0.84 0.17 -0.82 0.2 -0.79 0.22 -0.77 0.24 -0.74 0.27 -0.71 0.29 -0.69 0.32 -0.66 0.35 -0.63 0.37 -0.6 0.4 -0.57 0.43 -0.53 0.46 -0.5 0.49 -0.47 0.52 -0.43 0.55 -0.4 0.59 -0.36 0.62 -0.33 0.66 -0.29 0.69 -0.25 0.73 -0.21 0.76 -0.17 0.8 -0.12 0.84 -0.08 0.88 -0.45 0.34 -0.14 -0.72zm0.59 0.38l-0.02 0.3 -0.43 0.04 0.45 -0.34zm-20.96 12.24l1.24 -0.28 1.1 -0.31 0.97 -0.33 0.85 -0.35 0.74 -0.37 0.65 -0.39 0.56 -0.4 0.49 -0.42 0.42 -0.43 0.37 -0.44 0.32 -0.46 0.28 -0.47 0.26 -0.47 0.24 -0.48 0.23 -0.49 0.23 -0.49 0.24 -0.49 0.25 -0.49 0.28 -0.48 0.32 -0.48 0.37 -0.47 0.43 -0.46 0.5 -0.44 0.58 -0.42 0.67 -0.4 0.76 -0.37 0.87 -0.34 0.98 -0.31 1.09 -0.28 1.22 -0.24 1.36 -0.21 1.51 -0.17 0.14 0.72 -1.45 0.16 -1.3 0.2 -1.16 0.23 -1.02 0.26 -0.9 0.29 -0.78 0.31 -0.68 0.33 -0.59 0.35 -0.51 0.37 -0.44 0.39 -0.39 0.41 -0.34 0.42 -0.3 0.44 -0.27 0.45 -0.24 0.47 -0.23 0.48 -0.22 0.49 -0.23 0.49 -0.24 0.5 -0.27 0.5 -0.3 0.5 -0.35 0.49 -0.4 0.49 -0.47 0.48 -0.54 0.47 -0.63 0.45 -0.72 0.43 -0.82 0.41 -0.92 0.38 -1.04 0.35 -1.16 0.33 -1.3 0.29 -0.29 -0.69z"/>
   </g>
  </g>
 </g>
</svg>
