<svg xmlns="http://www.w3.org/2000/svg">
    <symbol id="new-file" viewBox="0 0 24 24" fill="none" xmlns="http://www.w3.org/2000/svg">
        <path d="M20 10.5V6.8C20 5.11984 20 4.27976 19.673 3.63803C19.3854 3.07354 18.9265 2.6146 18.362 2.32698C17.7202 2 16.8802 2 15.2 2H8.8C7.11984 2 6.27976 2 5.63803 2.32698C5.07354 2.6146 4.6146 3.07354 4.32698 3.63803C4 4.27976 4 5.11984 4 6.8V17.2C4 18.8802 4 19.7202 4.32698 20.362C4.6146 20.9265 5.07354 21.3854 5.63803 21.673C6.27976 22 7.11984 22 8.8 22H12M14 11H8M10 15H8M16 7H8M18 21V15M15 18H21" stroke="currentColor" stroke-width="2" stroke-linecap="round" stroke-linejoin="round"/>
    </symbol>
    <symbol id="arrow-out" fill="currentColor" version="1.1" xmlns="http://www.w3.org/2000/svg" xmlns:xlink="http://www.w3.org/1999/xlink" 
	 viewBox="0 0 1792 1792" xml:space="preserve">
        <polygon points="626.4,1011.9 377.4,1011.9 377.4,1272 0.3,897.3 377.4,520.3 377.4,774.8 626,774.8 "/>
        <polygon points="782.3,622.5 782.3,377.9 519.8,377.9 896.1,0 1270.8,377.1 1017.8,377.1 1017.8,625.7 "/>
        <polygon points="1011.4,1161.5 1011.4,1415.2 1271.6,1415.2 896.1,1791.5 519.8,1415.2 774.4,1415.2 774.4,1165.8 "/>
        <polygon points="1416.4,515.5 1791.1,892.6 1416.4,1267.3 1416.4,1017.9 1165.8,1017.9 1165.8,784.4 1417.2,784.4 "/>
    </symbol>
    <symbol id="arrow-in" fill="currentColor" version="1.1" xmlns="http://www.w3.org/2000/svg" xmlns:xlink="http://www.w3.org/1999/xlink" 
	 viewBox="0 0 1792 1792" xml:space="preserve">
        <path d="M731.6,893.6l-429.1,429.1l0-289.5l-282.5-0.1l-1.8-270.4l285.5,0.3l0.3-296.7l427.4,427.4L731.6,893.6z"/>
        <path d="M763.9,1483.5l-298.5,2.1l429.1-429.1l429.1,429.1h-289.5l-0.2,282.8l-269.9,1.3L763.9,1483.5z"/>
        <path d="M1024.7,303.9l298.5-2.1L894.1,730.9L467,303.7l287.6-1.9l0.3-282.7l269.9-1.3V303.9z"/>
        <path d="M1056.9,893.7l429.1-429.1l0,289.5l282.8,0.2l1.3,269.9l-285.7,0.5l1.9,298.3L1056.9,893.7L1056.9,893.7z"/>
    </symbol>
</svg>
